<?xml version="1.0" encoding="utf-8"?>
<!-- Generator: Adobe Illustrator 17.1.0, SVG Export Plug-In . SVG Version: 6.00 Build 0)  -->
<!DOCTYPE svg PUBLIC "-//W3C//DTD SVG 1.1//EN" "http://www.w3.org/Graphics/SVG/1.1/DTD/svg11.dtd">
<svg version="1.1" id="Layer_1" xmlns="http://www.w3.org/2000/svg" xmlns:xlink="http://www.w3.org/1999/xlink" x="0px" y="0px"
	 viewBox="0 262.6 1224.7 267.1" enable-background="new 0 262.6 1224.7 267.1" xml:space="preserve">
<g>
	<path fill="#F6C4BD" d="M45.6,280.1c20.2,0,30.2,22.3,30.2,67.2v32.6c-3.1,43.9-8.2,77.8-15.1,101.8c9.9,15.4,19.2,28.5,28.1,39.1
		v2.1c0,2.7-1.4,4.5-4.5,4.5h-2.1c-9.9,0-18.5-7.9-26.1-24h-2.1l-11,8.6h-8.6c-18.9,0-29.8-15.1-32.6-45.6c0-10.3-0.7-16.1-2.1-17.5
		C0,336.3,15.1,280.1,45.6,280.1z M36.7,290.7c-11.3,40.8-17.1,74.1-17.1,99.8v8.6c0,1.4-0.7,2.1-2.1,2.1l2.1,4.5v4.5
		c0,10.6-0.7,18.5-2.1,24c1.7,35,4.8,58.3,8.6,69.6h6.5c1.7,0,6.2-4.5,13-13c-5.8-9.9-8.6-17.5-8.6-21.6c0-2.1,2.1-4.5,6.5-6.5H48
		l6.5,4.5h2.1c4.5-25.7,6.5-41.8,6.5-47.7v-72C62.7,309.6,54.2,290.7,36.7,290.7z"/>
	<path fill="#F6C4BD" d="M118.3,273.6h8.6l2.1,11v203.7c0,9.9,5.1,17.5,15.1,21.6c11.7,0,17.5-20.9,17.5-63.1v-24
		c0-29.5-0.7-69.9-2.1-121.4l-2.1-4.5c1.7-15.8,4.8-24,8.6-24h4.5c2.7,19.2,4.5,44.6,4.5,76.5c0,109.7-7.2,164.9-21.6,164.9
		c0,2.7-5.8,4.5-17.5,4.5c-15.8-6.9-24-18.5-24-34.6V321.3c0-3.4-0.7-6.2-2.1-8.6C111.1,286.6,114.2,273.6,118.3,273.6z"/>
	<path fill="#F6C4BD" d="M200.9,290.7c33.6,1.4,50.7,2.1,52.1,2.1l2.1,4.5v6.5H229c1.4,43.9,2.1,72.3,2.1,84.7l2.1,11h-2.1l2.1,4.5
		v2.1c0,44.6-1.4,80.6-4.5,108.3c2.7,0,4.5,0.7,4.5,2.1l4.5-2.1h6.5c2.7,0.3,4.5,1.7,4.5,4.5v4.5c0,2.7-2.1,4.5-6.5,4.5
		c-25.4,1.4-40.5,2.1-45.6,2.1l-2.1-4.5v-2.1c1.4-4.5,5.8-6.5,13-6.5h6.5V388.5c0-18.2-0.7-40.5-2.1-67.2c1.4-1.4,2.1-7.2,2.1-17.5
		c-13-1.7-19.5-3.8-19.5-6.5v-2.1C194.7,292.1,196.8,290.7,200.9,290.7z"/>
	<path fill="#F6C4BD" d="M337,264.7h4.5c2.7,11.7,4.5,20.9,4.5,28.1c-1.4,96-2.1,149.5-2.1,160.5h-2.1c0,1.4,0.7,2.1,2.1,2.1
		c0,36.3-4.5,54.2-13,54.2h-2.1c-5.8-3.4-14.4-36.7-26.4-99.4c-2.4,0-5.5-11-8.6-32.6h-2.4c0,5.1-0.7,39.4-2.1,101.8h-2.1
		c0,1.4,0.7,2.1,2.1,2.1l-2.1,11v17.5c0,2.7-1.4,4.5-4.5,4.5h-8.6v-11c0-1.4,0.7-2.1,2.1-2.1c0-1.4-0.7-2.1-2.1-2.1
		c1.4-26.7,2.1-46.3,2.1-58.6V293.1c1-8.6,3.1-13,6.5-13c5.8,0,15.1,36,28.1,108.3c9.9,36.3,15.1,58.6,15.1,67.2h2.1
		c0-7.2,0.7-11,2.1-11c0-1.4-0.7-2.1-2.1-2.1c1.4-19.5,2.1-33.9,2.1-43.2v-24c0-22.3,0.7-58.3,2.1-108.3L337,264.7z"/>
	<path fill="#F6C4BD" d="M457,273.6v2.1c0,7.9-11.7,12-34.6,13c-2.7,27.8-4.5,64.1-4.5,108.3v54.2c0,1.4-0.7,2.1-2.1,2.1l2.1,4.5
		v41.1l-4.5,15.1h-2.1l-6.5-4.5c-1.4-28.8-2.1-50.7-2.1-65.1v-88.5c0-1.4,0.7-2.1,2.1-2.1l-2.1-4.5c0-1.4,0.7-2.1,2.1-2.1
		c0-1.4-0.7-2.1-2.1-2.1l2.1-11v-39.1l2.1-4.5h-17.5c-3.4,0-9.9-1.4-19.5-4.5v-4.1c1-4.5,6.5-6.5,17.5-6.5
		C402.9,275.7,425.8,275,457,273.6z"/>
	<path fill="#F6C4BD" d="M484.1,284.2h11c18.9,0,28.1,2.1,28.1,6.5c0,3.8-9.3,6.9-28.1,8.6v30.2c0,2.7,7.2,5.1,21.6,6.5v6.5
		c-15.8,0-24,5.1-24,15.1c-1.4,8.2-2.1,19.9-2.1,34.6v21.6c0,22.3-0.7,56.2-2.1,101.8c1.4,1.4,12.3,2.7,32.6,4.5v4.5
		c0,2.7-1.4,4.5-4.5,4.5H480c-2.1,0-4.1-2.1-6.5-6.5c1.4-127.5,3.8-197.8,6.5-210.2c0-1.4-0.7-2.1-2.1-2.1
		C479.3,292.8,481.4,284.2,484.1,284.2z"/>
	<path fill="#F6C4BD" d="M585.9,262.6c7.5,0,12,7.2,13,21.6v19.5c0,2.7-1.4,4.5-4.5,4.5h-4.5v-21.6c0-7.9-2.7-12.7-8.6-15.1
		c-9.9,0-15.1,7.2-15.1,21.6c0,11.3,9.9,45.9,30.2,103.9c4.1,11.7,6.9,28.8,8.6,52.1c-3.8,43.5-13.7,65.1-30.2,65.1h-11
		c-13-8.6-19.5-19.5-19.5-32.6v-19.5c0-7.9,2.7-13,8.6-15.4h4.5c1.4,38.1,5.8,57.6,13,58.6c13-8.2,19.5-18.9,19.5-32.6v-11
		c0-21.9-12.3-69.6-36.7-143v-28.1C553.4,271.9,564,262.6,585.9,262.6z"/>
	<path fill="#F6C4BD" d="M668.2,262.6c7.5,0,12,7.2,13,21.6v19.5c0,2.7-1.4,4.5-4.5,4.5h-4.5v-21.6c0-7.9-2.7-12.7-8.6-15.1
		c-9.9,0-15.1,7.2-15.1,21.6c0,11.3,9.9,45.9,30.2,103.9c4.1,11.7,6.9,28.8,8.6,52.1c-3.8,43.5-13.7,65.1-30.2,65.1h-11
		c-13-8.6-19.5-19.5-19.5-32.6v-19.5c0-7.9,2.7-13,8.6-15.4h4.5c1.4,38.1,5.8,57.6,13,58.6c13-8.2,19.5-18.9,19.5-32.6v-11
		c0-21.9-12.3-69.6-36.7-143v-28.1C635.7,271.9,646.6,262.6,668.2,262.6z"/>
	<path fill="#F6C4BD" d="M720.7,284.2h11c18.9,0,28.1,2.1,28.1,6.5c0,3.8-9.3,6.9-28.1,8.6v30.2c0,2.7,7.2,5.1,21.6,6.5v6.5
		c-15.8,0-24,5.1-24,15.1c-1.4,8.2-2.1,19.9-2.1,34.6v21.6c0,22.3-0.7,56.2-2.1,101.8c1.4,1.4,12.3,2.7,32.6,4.5v4.5
		c0,2.7-1.4,4.5-4.5,4.5h-36.7c-2.1,0-4.1-2.1-6.5-6.5c1.4-127.5,3.8-197.8,6.5-210.2c0-1.4-0.7-2.1-2.1-2.1
		C715.5,292.8,717.6,284.2,720.7,284.2z"/>
	<path fill="#F6C4BD" d="M844.1,264.7h4.5c2.7,11.7,4.5,20.9,4.5,28.1c-1.4,96-2.1,149.5-2.1,160.5h-2.1c0,1.4,0.7,2.1,2.1,2.1
		c0,36.3-4.5,54.2-13,54.2h-2.1c-5.5-3.8-14.1-37-26.1-99.8c-2.4,0-5.5-11-8.6-32.6h-2.1c0,5.1-0.7,39.4-2.1,101.8h-2.1
		c0,1.4,0.7,2.1,2.1,2.1l-2.1,11v17.5c0,2.7-1.4,4.5-4.5,4.5h-8.6v-11c0-1.4,0.7-2.1,2.1-2.1c0-1.4-0.7-2.1-2.1-2.1
		c1.4-26.7,2.1-46.3,2.1-58.6V292.8c1-8.6,3.1-13,6.5-13c5.8,0,15.1,36,28.1,108.3c9.9,36.3,15.1,58.6,15.1,67.2h2.1
		c0-7.2,0.7-11,2.1-11c0-1.4-0.7-2.1-2.1-2.1c1.4-19.5,2.1-33.9,2.1-43.2v-24c0-22.3,0.7-58.3,2.1-108.3L844.1,264.7z"/>
	<path fill="#F6C4BD" d="M963.8,273.6v2.1c0,7.9-11.7,12-34.6,13c-2.7,27.8-4.5,64.1-4.5,108.3v54.2c0,1.4-0.7,2.1-2.1,2.1l2.1,4.5
		v41.1l-4.5,15.1h-2.1l-6.5-4.5c-1.4-28.8-2.1-50.7-2.1-65.1v-88.5c0-1.4,0.7-2.1,2.1-2.1l-2.1-4.5c0-1.4,0.7-2.1,2.1-2.1
		c0-1.4-0.7-2.1-2.1-2.1l2.1-11v-39.1l2.1-4.5h-17.5c-3.4,0-9.9-1.4-19.5-4.5v-4.1c1-4.5,6.5-6.5,17.5-6.5
		C909.6,275.7,932.9,275,963.8,273.6z"/>
	<path fill="#F6C4BD" d="M990.9,290.7c33.6,1.4,50.7,2.1,52.1,2.1l2.1,4.5v6.5H1019c1.4,43.9,2.1,72.3,2.1,84.7l2.1,11h-2.1l2.1,4.5
		v2.1c0,44.6-1.4,80.6-4.5,108.3c2.7,0,4.5,0.7,4.5,2.1l4.5-2.1h6.5c2.7,0.3,4.5,1.7,4.5,4.5v4.5c0,2.7-2.1,4.5-6.5,4.5
		c-25.4,1.4-40.5,2.1-45.6,2.1l-2.1-4.5v-2.1c1.4-4.5,5.8-6.5,13-6.5h6.5V388.5c0-18.2-0.7-40.5-2.1-67.2c1.4-1.4,2.1-7.2,2.1-17.5
		c-13-1.7-19.5-3.8-19.5-6.5v-2.1C984.3,292.1,986.4,290.7,990.9,290.7z"/>
	<path fill="#F6C4BD" d="M1118.7,284.2h2.1c9.9,0,18.5,43.2,26.1,129.9v86.7c-1,18.9-3.8,28.1-8.6,28.1h-2.1c-2.7,0-4.5-1.4-4.5-4.5
		c0-13.7,0.7-41.8,2.1-84.7c-1.4-41.5-3.8-69.6-6.5-84.7h-19.5c-9.9,44.2-20.2,98.4-30.2,162.5l-6.5,4.5h-4.5c0-1.7-0.7-3.8-2.1-6.5
		c0-27.8,13-94.3,39.1-199.5C1109.5,295.2,1114.6,284.2,1118.7,284.2z M1118.7,318.9c-4.5,15.1-6.5,23.7-6.5,26.1h13
		c0-2.7-1.4-11.3-4.5-26.1H1118.7z"/>
	<path fill="#F6C4BD" d="M1180.8,271.2h6.5c2.7,22.6,4.5,39.1,4.5,49.7h-2.1l2.1,4.5v41.1c0,27.8-0.7,68.9-2.1,123.8h-2.1
		c1.4,2.4,2.1,5.5,2.1,8.6h17.5c1.4,0,2.1,0.7,2.1,2.1l4.5-2.1c7.2,1.7,11,4.1,11,6.5v2.1c-1.4,4.5-5.8,6.5-13,6.5h-26.1
		c-7.2,0-11-19.5-11-58.6v-24c0-1.4,0.7-2.1,2.1-2.1c0-1.4-0.7-2.1-2.1-2.1c0-2.7,0.7-4.5,2.1-4.5c-1.4-36.7-2.1-63.4-2.1-80.2
		v-58.3C1175,275.7,1177.4,271.2,1180.8,271.2z"/>
</g>
</svg>
