<?xml version="1.0" encoding="utf-8"?>
<!-- Generator: Adobe Illustrator 17.1.0, SVG Export Plug-In . SVG Version: 6.00 Build 0)  -->
<!DOCTYPE svg PUBLIC "-//W3C//DTD SVG 1.1//EN" "http://www.w3.org/Graphics/SVG/1.1/DTD/svg11.dtd">
<svg version="1.1" id="Layer_1" xmlns="http://www.w3.org/2000/svg" xmlns:xlink="http://www.w3.org/1999/xlink" x="0px" y="0px"
	 viewBox="0 0 60 79.5" enable-background="new 0 0 60 79.5" xml:space="preserve">
<path fill="#FDE6E2" d="M0,9.4c0,0,1.1-8.9,10.4-9.4c0,0,8.3,0.6,9.7,7.3v12.8h31.1c0.5,0,0.9,0.1,1.4,0.2c2.2,0.8,8.7,3.8,7.2,10.7
	c0,0-0.4,5.7-6.5,8.6c-0.3,0.2-0.7,0.2-1.1,0.2h-32L20,50.8c0,0,1,6.9,7,8.4l25,0.7c0,0,8,2,7.9,9.4c0,0-0.4,8.4-7.7,10.1h-26
	c0,0-20.8,0.6-26.2-25V9.4z"/>
</svg>
