<?xml version="1.0" encoding="utf-8"?>
<!-- Generator: Adobe Illustrator 17.1.0, SVG Export Plug-In . SVG Version: 6.00 Build 0)  -->
<!DOCTYPE svg PUBLIC "-//W3C//DTD SVG 1.1//EN" "http://www.w3.org/Graphics/SVG/1.1/DTD/svg11.dtd">
<svg version="1.1" id="Layer_1" xmlns="http://www.w3.org/2000/svg" xmlns:xlink="http://www.w3.org/1999/xlink" x="0px" y="0px"
	 viewBox="0 0 64.4 77.5" enable-background="new 0 0 64.4 77.5" xml:space="preserve">
<path fill="#FDE6E2" d="M12.5,40.6c0,0,1.3,1.1,0.6,2.2l-1.1,4.5c0,0-0.9,1.9-3.2,0.4c0,0-8.8-2.9-8.9-17.6c0,0-0.3-16.7,15.3-25.5
	c0,0,15.7-10.4,35.9,0c0,0,17.4,8.1,12.3,31.5c0,0-2.7,16.6-14.9,21.6c0,0-12.2,7.2-21.7-3.3L23.1,69c0,0-3.2,7.8-4.3,8.6
	c0,0-4.7-1-5.7-2.1c0,0,0.1-5.7,0.2-6.7c0,0,0.3-2.7,0.6-3.6l6.3-26.3c0,0-3.3-7.3-0.5-14c0,0,2.6-6.4,8.2-6.3c0,0,5.6-0.5,6.3,5.7
	c0,0,0.5,5-1.5,9.6l-2.7,9.1c0,0-0.6,7.4,6,8.9c0,0,12.6,2.9,16.1-17.6c0,0,5.1-18.8-10.7-24.8c0,0-17.7-6.3-28.3,9
	c0,0-4.1,6.8-3.8,13.3C9.2,31.7,9.4,37.4,12.5,40.6z"/>
</svg>
