<?xml version="1.0" encoding="utf-8"?>
<!-- Generator: Adobe Illustrator 17.1.0, SVG Export Plug-In . SVG Version: 6.00 Build 0)  -->
<!DOCTYPE svg PUBLIC "-//W3C//DTD SVG 1.1//EN" "http://www.w3.org/Graphics/SVG/1.1/DTD/svg11.dtd">
<svg version="1.1" id="Layer_1" xmlns="http://www.w3.org/2000/svg" xmlns:xlink="http://www.w3.org/1999/xlink" x="0px" y="0px"
	 viewBox="0 0 197.6 131" enable-background="new 0 0 197.6 131" xml:space="preserve">
<path fill="#EDC0AF" d="M197.6,23.7c0,6.6-5.4,12-12,12H12c-6.6,0-12-5.4-12-12V12C0,5.4,5.4,0,12,0h173.6c6.6,0,12,5.4,12,12V23.7z
	"/>
<path fill="#EDC0AF" d="M197.6,71.3c0,6.6-5.4,12-12,12H12c-6.6,0-12-5.4-12-12V59.6c0-6.6,5.4-12,12-12h173.6c6.6,0,12,5.4,12,12
	V71.3z"/>
<path fill="#EDC0AF" d="M197.6,119c0,6.6-5.4,12-12,12H12c-6.6,0-12-5.4-12-12v-11.7c0-6.6,5.4-12,12-12h173.6c6.6,0,12,5.4,12,12
	V119z"/>
</svg>
