<?xml version="1.0" encoding="utf-8"?>
<!-- Generator: Adobe Illustrator 17.1.0, SVG Export Plug-In . SVG Version: 6.00 Build 0)  -->
<!DOCTYPE svg PUBLIC "-//W3C//DTD SVG 1.1//EN" "http://www.w3.org/Graphics/SVG/1.1/DTD/svg11.dtd">
<svg version="1.1" id="Layer_1" xmlns="http://www.w3.org/2000/svg" xmlns:xlink="http://www.w3.org/1999/xlink" x="0px" y="0px"
	 viewBox="0 193.1 612 405.7" enable-background="new 0 193.1 612 405.7" xml:space="preserve">
<path fill="#EDC0AF" d="M612,266.5c0,20.4-16.7,37.2-37.2,37.2H37.2C16.7,303.7,0,287,0,266.5v-36.2c0-20.4,16.7-37.2,37.2-37.2
	h537.7c20.4,0,37.2,16.7,37.2,37.2V266.5z"/>
<path fill="#EDC0AF" d="M612,414c0,20.4-16.7,37.2-37.2,37.2H37.2C16.7,451.1,0,434.4,0,414v-36.2c0-20.4,16.7-37.2,37.2-37.2h537.7
	c20.4,0,37.2,16.7,37.2,37.2V414z"/>
<path fill="#EDC0AF" d="M612,561.7c0,20.4-16.7,37.2-37.2,37.2H37.2C16.7,598.9,0,582.1,0,561.7v-36.2c0-20.4,16.7-37.2,37.2-37.2
	h537.7c20.4,0,37.2,16.7,37.2,37.2V561.7z"/>
</svg>
